<svg width="393" height="536" viewBox="0 0 393 536" fill="none" xmlns="http://www.w3.org/2000/svg">
<g filter="url(#filter0_f_44_524)">
<path d="M191.073 518.359C191.057 522.501 194.402 525.778 198.543 525.678C202.685 525.577 206.055 522.138 206.072 517.997L191.073 518.359ZM206.072 517.997L207.984 26.4997L192.986 26.8622L191.073 518.359L206.072 517.997Z" fill="#B401B3"/>
</g>
<path d="M197.783 518.197L197.78 518.986L199.358 518.948L199.361 518.159L197.783 518.197ZM199.361 518.159L201.274 26.6619L199.696 26.7L197.783 518.197L199.361 518.159Z" fill="white" fill-opacity="0.5"/>
<g filter="url(#filter1_f_44_524)">
<path d="M-531.461 517.904L-536.99 522.953L-521.883 524.171L-516.355 519.122L-531.461 517.904ZM-516.355 519.122L21.2207 28.1413L6.11394 26.9235L-531.461 517.904L-516.355 519.122Z" fill="#B401B3"/>
</g>
<path d="M-524.702 518.449L-525.284 518.98L-523.695 519.109L-523.113 518.577L-524.702 518.449ZM-523.113 518.577L14.4619 27.5964L12.8727 27.4683L-524.702 518.449L-523.113 518.577Z" fill="white" fill-opacity="0.5"/>
<g filter="url(#filter2_f_44_524)">
<path d="M842.8 517.478C845.69 520.456 851.348 522.566 855.437 522.191C859.526 521.816 860.497 519.099 857.606 516.121L842.8 517.478ZM857.606 516.121L383.596 27.8517L368.789 29.2087L842.8 517.478L857.606 516.121Z" fill="#B401B3"/>
</g>
<path d="M848.638 514.561L849.189 515.128L850.747 514.985L850.196 514.418L848.638 514.561ZM850.196 514.418L376.137 26.1529L374.579 26.2953L848.638 514.561L850.196 514.418Z" fill="white" fill-opacity="0.5"/>
<g filter="url(#filter3_f_44_524)">
<path d="M-148.347 518.612C-150.278 522.269 -148.466 525.339 -144.3 525.47C-140.134 525.6 -135.191 522.741 -133.259 519.084L-148.347 518.612ZM-133.259 519.084L126.708 26.8595L111.621 26.3876L-148.347 518.612L-133.259 519.084Z" fill="#B401B3"/>
</g>
<path d="M-141.596 518.823L-141.964 519.52L-140.377 519.569L-140.009 518.873L-141.596 518.823ZM-140.009 518.873L119.958 26.6484L118.371 26.5987L-141.596 518.823L-140.009 518.873Z" fill="white" fill-opacity="0.5"/>
<g filter="url(#filter4_f_44_524)">
<path d="M510.772 516.318C512.568 520.058 517.358 522.914 521.472 522.697C525.586 522.481 527.465 519.274 525.67 515.534L510.772 516.318ZM525.67 515.534L291.128 27.0026L276.231 27.7867L510.772 516.318L525.67 515.534Z" fill="#B401B3"/>
</g>
<path d="M517.437 515.967L517.779 516.68L519.347 516.597L519.005 515.885L517.437 515.967ZM519.005 515.885L284.463 27.3534L282.896 27.4359L517.437 515.967L519.005 515.885Z" fill="white" fill-opacity="0.5"/>
<g filter="url(#filter5_f_44_524)">
<path d="M658.111 67.202C662.253 67.1994 665.513 63.8408 665.393 59.7004C665.273 55.5601 661.818 52.2057 657.676 52.2083L658.111 67.202ZM657.676 52.2083L-277.26 52.7971L-276.825 67.7908L658.111 67.202L657.676 52.2083Z" fill="#B401B3"/>
</g>
<path d="M657.916 60.4938L658.705 60.4933L658.659 58.916L657.87 58.9165L657.916 60.4938ZM657.87 58.9165L-277.066 59.5052L-277.02 61.0826L657.916 60.4938L657.87 58.9165Z" fill="white" fill-opacity="0.5"/>
<g filter="url(#filter6_f_44_524)">
<path d="M571.284 30.6564C575.426 30.6532 578.704 27.2937 578.606 23.1527C578.508 19.0118 575.07 15.6574 570.928 15.6606L571.284 30.6564ZM570.928 15.6606L-194.378 16.2493L-194.022 31.2451L571.284 30.6564L570.928 15.6606Z" fill="#B401B3"/>
</g>
<g filter="url(#filter7_f_44_524)">
<path d="M571.106 23.1585L-194.2 23.7472" stroke="white" stroke-opacity="0.22" stroke-width="2" stroke-linecap="round"/>
</g>
<g filter="url(#filter8_f_44_524)">
<path d="M740.992 102.529C745.134 102.527 748.377 99.1694 748.236 95.0296C748.094 90.8899 744.622 87.5358 740.48 87.538L740.992 102.529ZM740.48 87.538L-360.141 88.1267L-359.63 103.118L740.992 102.529L740.48 87.538Z" fill="#B401B3"/>
</g>
<path d="M740.763 95.8222L741.552 95.8218L741.498 94.2447L740.709 94.2451L740.763 95.8222ZM740.709 94.2451L-359.912 94.8338L-359.859 96.4109L740.763 95.8222L740.709 94.2451Z" fill="white" fill-opacity="0.5"/>
<g filter="url(#filter9_f_44_524)">
<path d="M823.866 123.456C828.008 123.458 831.237 126.815 831.078 130.954C830.919 135.093 827.433 138.447 823.291 138.445L823.866 123.456ZM823.291 138.445L-435.126 137.846L-434.551 122.857L823.866 123.456L823.291 138.445Z" fill="#B401B3"/>
</g>
<path d="M823.608 130.162L824.397 130.162L824.337 131.739L823.548 131.739L823.608 130.162ZM823.548 131.739L-434.868 131.14L-434.808 129.563L823.608 130.162L823.548 131.739Z" fill="white" fill-opacity="0.5"/>
<g filter="url(#filter10_f_44_524)">
<path d="M918.591 173.183C922.733 173.182 925.941 169.826 925.755 165.688C925.57 161.55 922.062 158.197 917.92 158.198L918.591 173.183ZM917.92 158.198L-525.906 158.787L-525.235 173.772L918.591 173.183L917.92 158.198Z" fill="#B401B3"/>
</g>
<path d="M918.291 166.479L919.08 166.479L919.009 164.902L918.22 164.903L918.291 166.479ZM918.22 164.903L-525.606 165.491L-525.535 167.068L918.291 166.479L918.22 164.903Z" fill="white" fill-opacity="0.5"/>
<g filter="url(#filter11_f_44_524)">
<path d="M997.525 208.51C1001.67 208.508 1004.86 205.153 1004.65 201.016C1004.45 196.879 1000.92 193.527 996.781 193.528L997.525 208.51ZM996.781 193.528L-604.84 194.117L-604.095 209.099L997.525 208.51L996.781 193.528Z" fill="#B401B3"/>
</g>
<path d="M997.192 201.807L997.981 201.807L997.903 200.231L997.114 200.231L997.192 201.807ZM997.114 200.231L-604.507 200.82L-604.428 202.396L997.192 201.807L997.114 200.231Z" fill="white" fill-opacity="0.5"/>
<g filter="url(#filter12_f_44_524)">
<path d="M1080.41 243.836C1084.55 243.835 1087.72 240.481 1087.5 236.345C1087.27 232.209 1083.73 228.857 1079.58 228.859L1080.41 243.836ZM1079.58 228.859L-687.721 229.448L-686.9 244.425L1080.41 243.836L1079.58 228.859Z" fill="#B401B3"/>
</g>
<path d="M1080.04 237.135L1080.83 237.135L1080.74 235.56L1079.95 235.56L1080.04 237.135ZM1079.95 235.56L-687.353 236.149L-687.267 237.724L1080.04 237.135L1079.95 235.56Z" fill="white" fill-opacity="0.5"/>
<g filter="url(#filter13_f_44_524)">
<path d="M1167.23 279.163C1171.38 279.161 1174.53 275.808 1174.28 271.674C1174.03 267.539 1170.47 264.188 1166.33 264.19L1167.23 279.163ZM1166.33 264.19L-774.549 264.778L-773.647 279.751L1167.23 279.163L1166.33 264.19Z" fill="#B401B3"/>
</g>
<path d="M1166.83 272.464L1167.62 272.463L1167.52 270.888L1166.74 270.889L1166.83 272.464ZM1166.74 270.889L-774.145 271.477L-774.05 273.052L1166.83 272.464L1166.74 270.889Z" fill="white" fill-opacity="0.5"/>
<g filter="url(#filter14_f_44_524)">
<path d="M1258.01 314.488C1262.15 314.487 1265.29 311.136 1265.01 307.002C1264.74 302.869 1261.17 299.52 1257.02 299.521L1258.01 314.488ZM1257.02 299.521L-857.431 300.109L-856.449 315.077L1258.01 314.488L1257.02 299.521Z" fill="#B401B3"/>
</g>
<path d="M1257.57 307.792L1258.36 307.792L1258.25 306.217L1257.46 306.217L1257.57 307.792ZM1257.46 306.217L-856.991 306.806L-856.888 308.381L1257.57 307.792L1257.46 306.217Z" fill="white" fill-opacity="0.5"/>
<g filter="url(#filter15_f_44_524)">
<path d="M1340.89 349.814C1345.03 349.813 1348.15 346.463 1347.86 342.331C1347.56 338.199 1343.97 334.851 1339.83 334.852L1340.89 349.814ZM1339.83 334.852L-944.257 335.441L-943.197 350.403L1340.89 349.814L1339.83 334.852Z" fill="#B401B3"/>
</g>
<path d="M1340.41 343.12L1341.2 343.12L1341.09 341.546L1340.3 341.546L1340.41 343.12ZM1340.3 341.546L-943.783 342.135L-943.671 343.709L1340.41 343.12L1340.3 341.546Z" fill="white" fill-opacity="0.5"/>
<g filter="url(#filter16_f_44_524)">
<path d="M1431.73 386.358C1435.88 386.357 1438.98 383.008 1438.66 378.878C1438.35 374.748 1434.74 371.4 1430.59 371.401L1431.73 386.358ZM1430.59 371.401L-1027.14 371.99L-1026 386.947L1431.73 386.358L1430.59 371.401Z" fill="#B401B3"/>
</g>
<path d="M1431.22 379.666L1432.01 379.666L1431.89 378.093L1431.1 378.093L1431.22 379.666ZM1431.1 378.093L-1026.63 378.682L-1026.51 380.255L1431.22 379.666L1431.1 378.093Z" fill="white" fill-opacity="0.5"/>
<g filter="url(#filter17_f_44_524)">
<path d="M1514.54 422.902C1518.68 422.901 1521.77 419.553 1521.43 415.425C1521.1 411.296 1517.46 407.95 1513.32 407.951L1514.54 422.902ZM1513.32 407.951L-1113.97 408.54L-1112.75 423.491L1514.54 422.902L1513.32 407.951Z" fill="#B401B3"/>
</g>
<path d="M1514 416.213L1514.79 416.213L1514.66 414.64L1513.87 414.64L1514 416.213ZM1513.87 414.64L-1113.42 415.229L-1113.29 416.802L1514 416.213L1513.87 414.64Z" fill="white" fill-opacity="0.5"/>
<g filter="url(#filter18_f_44_524)">
<path d="M1601.15 443.369C1605.31 443.371 1608.48 446.735 1608.24 450.884C1608.01 455.033 1604.44 458.396 1600.29 458.394L1601.15 443.369ZM1600.29 458.394L-1192.69 457.51L-1191.82 442.484L1601.15 443.369L1600.29 458.394Z" fill="#B401B3"/>
</g>
<path d="M1600.76 450.094L1601.55 450.094L1601.46 451.67L1600.67 451.67L1600.76 450.094ZM1600.67 451.67L-1192.3 450.785L-1192.21 449.209L1600.76 450.094L1600.67 451.67Z" fill="white" fill-opacity="0.5"/>
<g filter="url(#filter19_f_44_524)">
<path d="M1688.19 493.552C1692.34 493.551 1695.39 490.207 1695.01 486.082C1694.63 481.957 1690.96 478.614 1686.82 478.615L1688.19 493.552ZM1686.82 478.615L-1279.73 479.204L-1278.35 494.141L1688.19 493.552L1686.82 478.615Z" fill="#B401B3"/>
</g>
<path d="M1687.58 486.869L1688.37 486.869L1688.22 485.298L1687.43 485.298L1687.58 486.869ZM1687.43 485.298L-1279.11 485.887L-1278.97 487.458L1687.58 486.869L1687.43 485.298Z" fill="white" fill-opacity="0.5"/>
<g filter="url(#filter20_f_44_524)">
<path d="M1778.97 528.876L1786.47 528.875L1785.01 513.946L1777.51 513.947L1778.97 528.876ZM1777.51 513.947L-1370.5 514.536L-1369.05 529.465L1778.97 528.876L1777.51 513.947Z" fill="#B401B3"/>
</g>
<path d="M1778.32 522.197L1779.1 522.197L1778.95 520.627L1778.16 520.627L1778.32 522.197ZM1778.16 520.627L-1369.85 521.215L-1369.7 522.786L1778.32 522.197L1778.16 520.627Z" fill="white" fill-opacity="0.5"/>
<defs>
<filter id="filter0_f_44_524" x="184.761" y="20.1877" width="29.5349" height="511.804" filterUnits="userSpaceOnUse" color-interpolation-filters="sRGB">
<feFlood flood-opacity="0" result="BackgroundImageFix"/>
<feBlend mode="normal" in="SourceGraphic" in2="BackgroundImageFix" result="shape"/>
<feGaussianBlur stdDeviation="3.15599" result="effect1_foregroundBlur_44_524"/>
</filter>
<filter id="filter1_f_44_524" x="-543.301" y="20.6115" width="570.834" height="509.872" filterUnits="userSpaceOnUse" color-interpolation-filters="sRGB">
<feFlood flood-opacity="0" result="BackgroundImageFix"/>
<feBlend mode="normal" in="SourceGraphic" in2="BackgroundImageFix" result="shape"/>
<feGaussianBlur stdDeviation="3.15599" result="effect1_foregroundBlur_44_524"/>
</filter>
<filter id="filter2_f_44_524" x="362.477" y="21.5397" width="503.106" height="507.007" filterUnits="userSpaceOnUse" color-interpolation-filters="sRGB">
<feFlood flood-opacity="0" result="BackgroundImageFix"/>
<feBlend mode="normal" in="SourceGraphic" in2="BackgroundImageFix" result="shape"/>
<feGaussianBlur stdDeviation="3.15599" result="effect1_foregroundBlur_44_524"/>
</filter>
<filter id="filter3_f_44_524" x="-155.432" y="20.0756" width="288.452" height="511.71" filterUnits="userSpaceOnUse" color-interpolation-filters="sRGB">
<feFlood flood-opacity="0" result="BackgroundImageFix"/>
<feBlend mode="normal" in="SourceGraphic" in2="BackgroundImageFix" result="shape"/>
<feGaussianBlur stdDeviation="3.15599" result="effect1_foregroundBlur_44_524"/>
</filter>
<filter id="filter4_f_44_524" x="269.919" y="20.6906" width="262.743" height="508.33" filterUnits="userSpaceOnUse" color-interpolation-filters="sRGB">
<feFlood flood-opacity="0" result="BackgroundImageFix"/>
<feBlend mode="normal" in="SourceGraphic" in2="BackgroundImageFix" result="shape"/>
<feGaussianBlur stdDeviation="3.15599" result="effect1_foregroundBlur_44_524"/>
</filter>
<filter id="filter5_f_44_524" x="-283.572" y="45.8963" width="955.281" height="28.2064" filterUnits="userSpaceOnUse" color-interpolation-filters="sRGB">
<feFlood flood-opacity="0" result="BackgroundImageFix"/>
<feBlend mode="normal" in="SourceGraphic" in2="BackgroundImageFix" result="shape"/>
<feGaussianBlur stdDeviation="3.15599" result="effect1_foregroundBlur_44_524"/>
</filter>
<filter id="filter6_f_44_524" x="-209.378" y="0.660622" width="802.987" height="45.5845" filterUnits="userSpaceOnUse" color-interpolation-filters="sRGB">
<feFlood flood-opacity="0" result="BackgroundImageFix"/>
<feBlend mode="normal" in="SourceGraphic" in2="BackgroundImageFix" result="shape"/>
<feGaussianBlur stdDeviation="7.5" result="effect1_foregroundBlur_44_524"/>
</filter>
<filter id="filter7_f_44_524" x="-199.201" y="18.1588" width="775.307" height="10.5882" filterUnits="userSpaceOnUse" color-interpolation-filters="sRGB">
<feFlood flood-opacity="0" result="BackgroundImageFix"/>
<feBlend mode="normal" in="SourceGraphic" in2="BackgroundImageFix" result="shape"/>
<feGaussianBlur stdDeviation="2" result="effect1_foregroundBlur_44_524"/>
</filter>
<filter id="filter8_f_44_524" x="-366.453" y="81.226" width="1121.01" height="28.2039" filterUnits="userSpaceOnUse" color-interpolation-filters="sRGB">
<feFlood flood-opacity="0" result="BackgroundImageFix"/>
<feBlend mode="normal" in="SourceGraphic" in2="BackgroundImageFix" result="shape"/>
<feGaussianBlur stdDeviation="3.15599" result="effect1_foregroundBlur_44_524"/>
</filter>
<filter id="filter9_f_44_524" x="-441.438" y="116.545" width="1278.83" height="28.212" filterUnits="userSpaceOnUse" color-interpolation-filters="sRGB">
<feFlood flood-opacity="0" result="BackgroundImageFix"/>
<feBlend mode="normal" in="SourceGraphic" in2="BackgroundImageFix" result="shape"/>
<feGaussianBlur stdDeviation="3.15599" result="effect1_foregroundBlur_44_524"/>
</filter>
<filter id="filter10_f_44_524" x="-532.218" y="151.886" width="1464.29" height="28.1977" filterUnits="userSpaceOnUse" color-interpolation-filters="sRGB">
<feFlood flood-opacity="0" result="BackgroundImageFix"/>
<feBlend mode="normal" in="SourceGraphic" in2="BackgroundImageFix" result="shape"/>
<feGaussianBlur stdDeviation="3.15599" result="effect1_foregroundBlur_44_524"/>
</filter>
<filter id="filter11_f_44_524" x="-611.152" y="187.216" width="1622.13" height="28.1942" filterUnits="userSpaceOnUse" color-interpolation-filters="sRGB">
<feFlood flood-opacity="0" result="BackgroundImageFix"/>
<feBlend mode="normal" in="SourceGraphic" in2="BackgroundImageFix" result="shape"/>
<feGaussianBlur stdDeviation="3.15599" result="effect1_foregroundBlur_44_524"/>
</filter>
<filter id="filter12_f_44_524" x="-694.033" y="222.547" width="1787.85" height="28.1902" filterUnits="userSpaceOnUse" color-interpolation-filters="sRGB">
<feFlood flood-opacity="0" result="BackgroundImageFix"/>
<feBlend mode="normal" in="SourceGraphic" in2="BackgroundImageFix" result="shape"/>
<feGaussianBlur stdDeviation="3.15599" result="effect1_foregroundBlur_44_524"/>
</filter>
<filter id="filter13_f_44_524" x="-780.861" y="257.878" width="1961.47" height="28.1856" filterUnits="userSpaceOnUse" color-interpolation-filters="sRGB">
<feFlood flood-opacity="0" result="BackgroundImageFix"/>
<feBlend mode="normal" in="SourceGraphic" in2="BackgroundImageFix" result="shape"/>
<feGaussianBlur stdDeviation="3.15599" result="effect1_foregroundBlur_44_524"/>
</filter>
<filter id="filter14_f_44_524" x="-863.743" y="293.209" width="2135.09" height="28.1805" filterUnits="userSpaceOnUse" color-interpolation-filters="sRGB">
<feFlood flood-opacity="0" result="BackgroundImageFix"/>
<feBlend mode="normal" in="SourceGraphic" in2="BackgroundImageFix" result="shape"/>
<feGaussianBlur stdDeviation="3.15599" result="effect1_foregroundBlur_44_524"/>
</filter>
<filter id="filter15_f_44_524" x="-950.569" y="328.54" width="2304.76" height="28.1751" filterUnits="userSpaceOnUse" color-interpolation-filters="sRGB">
<feFlood flood-opacity="0" result="BackgroundImageFix"/>
<feBlend mode="normal" in="SourceGraphic" in2="BackgroundImageFix" result="shape"/>
<feGaussianBlur stdDeviation="3.15599" result="effect1_foregroundBlur_44_524"/>
</filter>
<filter id="filter16_f_44_524" x="-1033.45" y="365.089" width="2478.45" height="28.1693" filterUnits="userSpaceOnUse" color-interpolation-filters="sRGB">
<feFlood flood-opacity="0" result="BackgroundImageFix"/>
<feBlend mode="normal" in="SourceGraphic" in2="BackgroundImageFix" result="shape"/>
<feGaussianBlur stdDeviation="3.15599" result="effect1_foregroundBlur_44_524"/>
</filter>
<filter id="filter17_f_44_524" x="-1120.28" y="401.639" width="2648.05" height="28.1631" filterUnits="userSpaceOnUse" color-interpolation-filters="sRGB">
<feFlood flood-opacity="0" result="BackgroundImageFix"/>
<feBlend mode="normal" in="SourceGraphic" in2="BackgroundImageFix" result="shape"/>
<feGaussianBlur stdDeviation="3.15599" result="effect1_foregroundBlur_44_524"/>
</filter>
<filter id="filter18_f_44_524" x="-1199" y="436.172" width="2813.57" height="28.5339" filterUnits="userSpaceOnUse" color-interpolation-filters="sRGB">
<feFlood flood-opacity="0" result="BackgroundImageFix"/>
<feBlend mode="normal" in="SourceGraphic" in2="BackgroundImageFix" result="shape"/>
<feGaussianBlur stdDeviation="3.15599" result="effect1_foregroundBlur_44_524"/>
</filter>
<filter id="filter19_f_44_524" x="-1286.04" y="472.303" width="2987.39" height="28.1496" filterUnits="userSpaceOnUse" color-interpolation-filters="sRGB">
<feFlood flood-opacity="0" result="BackgroundImageFix"/>
<feBlend mode="normal" in="SourceGraphic" in2="BackgroundImageFix" result="shape"/>
<feGaussianBlur stdDeviation="3.15599" result="effect1_foregroundBlur_44_524"/>
</filter>
<filter id="filter20_f_44_524" x="-1376.82" y="507.634" width="3169.59" height="28.1431" filterUnits="userSpaceOnUse" color-interpolation-filters="sRGB">
<feFlood flood-opacity="0" result="BackgroundImageFix"/>
<feBlend mode="normal" in="SourceGraphic" in2="BackgroundImageFix" result="shape"/>
<feGaussianBlur stdDeviation="3.15599" result="effect1_foregroundBlur_44_524"/>
</filter>
</defs>
</svg>
