<svg width="87" height="83" fill="none" xmlns="http://www.w3.org/2000/svg"><g filter="url(#a)"><path d="M40.047 11.319A4.828 4.828 0 0143.38 10c1.25 0 2.449.474 3.333 1.319L75 38.343a4.405 4.405 0 011.38 3.184c0 1.194-.496 2.34-1.38 3.184L46.713 71.737A4.834 4.834 0 0143.397 73a4.827 4.827 0 01-3.293-1.32 4.406 4.406 0 01-1.38-3.145 4.398 4.398 0 011.323-3.168L65 41.527l-24.953-23.84a4.404 4.404 0 01-1.38-3.184c0-1.194.496-2.34 1.38-3.184zm-28.287 0A4.828 4.828 0 0115.093 10c1.25 0 2.45.474 3.334 1.319l28.286 27.024a4.405 4.405 0 011.38 3.184c0 1.194-.496 2.34-1.38 3.184L18.426 71.737A4.834 4.834 0 0115.11 73a4.826 4.826 0 01-3.292-1.32 4.406 4.406 0 01-1.38-3.145 4.4 4.4 0 011.322-3.168l24.954-23.84-24.954-23.84a4.404 4.404 0 01-1.38-3.184c0-1.194.496-2.34 1.38-3.184z" fill="#2B53D5"/></g><path d="M45.002 15.081a3.94 3.94 0 012.778-1.143 3.94 3.94 0 012.777 1.143L74.13 38.52a3.895 3.895 0 011.15 2.762c0 1.036-.414 2.03-1.15 2.762L50.558 67.481a3.94 3.94 0 01-5.508-.047 3.895 3.895 0 01-.048-5.476L65.797 41.28 45.002 20.605a3.895 3.895 0 01-1.15-2.762c0-1.036.414-2.03 1.15-2.762zm-23.572 0a3.94 3.94 0 012.778-1.143 3.94 3.94 0 012.777 1.143L50.557 38.52a3.895 3.895 0 010 5.524L26.985 67.481a3.94 3.94 0 01-5.507-.047 3.894 3.894 0 01-.048-5.476L42.225 41.28 21.43 20.605a3.895 3.895 0 01-1.15-2.762c0-1.036.414-2.03 1.15-2.762z" fill="#fff"/><defs><filter id="a" x=".38" y="0" width="86" height="83" filterUnits="userSpaceOnUse" color-interpolation-filters="sRGB"><feFlood flood-opacity="0" result="BackgroundImageFix"/><feBlend in="SourceGraphic" in2="BackgroundImageFix" result="shape"/><feGaussianBlur stdDeviation="5" result="effect1_foregroundBlur_470_1829"/></filter></defs></svg>