<svg width="87" height="83" fill="none" xmlns="http://www.w3.org/2000/svg"><g filter="url(#a)"><path d="M46.953 71.681A4.828 4.828 0 0143.62 73a4.828 4.828 0 01-3.333-1.319L12 44.657a4.405 4.405 0 01-1.38-3.184c0-1.194.497-2.34 1.38-3.184l28.287-27.025A4.834 4.834 0 0143.603 10a4.827 4.827 0 013.293 1.32 4.406 4.406 0 011.38 3.145 4.398 4.398 0 01-1.323 3.168L22 41.473l24.953 23.84a4.404 4.404 0 011.38 3.184c0 1.194-.496 2.34-1.38 3.184zm28.287 0A4.828 4.828 0 0171.907 73a4.828 4.828 0 01-3.334-1.319L40.287 44.657a4.405 4.405 0 01-1.38-3.184c0-1.194.496-2.34 1.38-3.184l28.286-27.025A4.834 4.834 0 0171.89 10a4.826 4.826 0 013.292 1.32 4.406 4.406 0 011.38 3.145 4.4 4.4 0 01-1.322 3.168l-24.954 23.84 24.954 23.84a4.404 4.404 0 011.38 3.184c0 1.194-.496 2.34-1.38 3.184z" fill="#2B53D5"/></g><path d="M41.998 67.919a3.94 3.94 0 01-2.778 1.144 3.94 3.94 0 01-2.777-1.144L12.87 44.48a3.895 3.895 0 01-1.15-2.762c0-1.036.414-2.03 1.15-2.762l23.573-23.438a3.94 3.94 0 015.507.047 3.895 3.895 0 01.048 5.476L21.203 41.72l20.795 20.676a3.895 3.895 0 011.15 2.762c0 1.036-.414 2.03-1.15 2.762zm23.572 0a3.94 3.94 0 01-2.778 1.144 3.94 3.94 0 01-2.777-1.144L36.443 44.48a3.895 3.895 0 010-5.524l23.572-23.438a3.94 3.94 0 015.507.047 3.894 3.894 0 01.048 5.476L44.775 41.72 65.57 62.395a3.895 3.895 0 011.15 2.762c0 1.036-.414 2.03-1.15 2.762z" fill="#fff"/><defs><filter id="a" x=".62" y="0" width="86" height="83" filterUnits="userSpaceOnUse" color-interpolation-filters="sRGB"><feFlood flood-opacity="0" result="BackgroundImageFix"/><feBlend in="SourceGraphic" in2="BackgroundImageFix" result="shape"/><feGaussianBlur stdDeviation="5" result="effect1_foregroundBlur_470_1833"/></filter></defs></svg>